<?xml version="1.0" encoding="UTF-8" standalone="no"?>
<svg width="491.5" xmlns="http://www.w3.org/2000/svg" height="616.5">
 <g stroke="#000" fill-rule="evenodd">
  <path id="path2" fill="#ab5b5b" d="m204 55.5v0.5l-1 0.25-1 0.25-0.75 2.75q-0.75 2.75 0.25 7.75t2 9l1 4-1.25 0.75q-1.25 0.75-3.75 1.5l-2.5 0.75-19.5-1.25q-19.5-1.25-20-1l-0.5 0.25h-1-1l-0.25-2.5-0.25-2.5-2.25-0.5-2.25-0.5 0.75-1q0.75-1 2.25-11.5t2-11.5l0.5-1 1.75-1.25q1.75-1.25 10.75-2.25t16.5 0.5 13.5 4.75l6 3.25v0.5z"/>
  <g fill="#592d2d">
   <path id="path4" d="m142 79.25l8-4.25 2.25 0.5 2.25 0.5 0.25 2.5 0.25 2.5h2l-3.5 2-3.5 2v1l-2.25 0.5-2.25 0.5-0.25 0.25q-0.25 0.25-1.75 1.75t-3 2.75l-1.5 1.25-2-0.75-2-0.75-2-0.25q-2-0.25-0.5-4t9.5-8z"/>
   <path id="path6" d="m203 56.25l1-0.25 1.5 3.25q1.5 3.25 8 3.25h6.5l4.75 3.75q4.75 3.75 5.25 4.75l0.5 1-1.5 5q-1.5 5-2.75 6.75l-1.25 1.75-1 0.25-1 0.25-10-0.5-10-0.5-3-1-3-1 2.5-0.75q2.5-0.75 3.75-1.5l1.25-0.75-1-4q-1-4-2-9t-0.25-7.75l0.75-2.75 1-0.25z"/>
  </g>
  <g fill="#fff58a">
   <path id="path8" d="m177.5 81.75l19.5 1.25 3 1 3 1-2.5 0.5-2.5 0.5-0.5 6-0.5 6h-2q-2 0-2.25 1t-7 1.5-8.75 1.75-5 2.75l-3 1.5-7-2q-7-2-7.5-2.5l-0.5-0.5-0.75-3.25q-0.75-3.25-1.25-6.75t-1.25-4.5l-0.75-1v-0.5-0.5l3.5-2 3.5-2 0.5-0.25q0.5-0.25 20 1z"/>
   <path id="path10" d="m170.5 115.25q1.5-1.25 4.5-0.5l3 0.75 1.75 0.75q1.75 0.75 1 2.5t-6.25 4.5-6.5 1l-1-1.75-0.25-1.75q-0.25-1.75 1-3t2.75-2.5z"/>
  </g>
  <path id="path13" fill="#4f4f4f" d="m213 85.5l10 0.5v0.5q0 0.5-2.25 2t0 8.5l2.25 7-4.25-2.5q-4.25-2.5-6 3.25t-5.75 7.25l-4 1.5 0.25 2.25q0.25 2.25 1.5 6.25l1.25 4-1.5 0.25q-1.5 0.25-3 3t-2.5 2.75h-1v-0.5-0.5l-6.5 2.75q-6.5 2.75-12.5 2l-6-0.75v1q0 1-7 1.5l-7 0.5v-0.5-0.5l0.5-0.75q0.5-0.75-0.25-4t-3.25-10.25l-2.5-7-2.25-2.25q-2.25-2.25-5-10.5t-5-8.75l-2.25-0.5 1.5-1.25q1.5-1.25 3-2.75t1.75-1.75l0.25-0.25 2.25-0.5 2.25-0.5 0.75 1q0.75 1 1.25 4.5t1.25 6.75l0.75 3.25 0.5 0.5q0.5 0.5 7.5 2.5l7 2 3-1.5q3-1.5 5-2.75t8.75-1.75 7-1.5 2.25-1h2l0.5-6 0.5-6 2.5-0.5 2.5-0.5 10 0.5zm-42.5 29.75q1.5-1.25 4.5-0.5l3 0.75 1.75 0.75q1.75 0.75 1 2.5t-6.25 4.5-6.5 1l-1-1.75-0.25-1.75q-0.25-1.75 1-3t2.75-2.5z"/>
  <path id="path15" fill="#bdb66d" d="m198 131.5v0.5l-0.75 2.5-0.75 2.5-0.25 1-0.25 1h-0.5q-0.5 0-2 5.5t-4 6.5l-2.5 1 0.5 3.5 0.5 3.5-1 0.5q-1 0.5-3.75 8t-4.75 18-3.75 11.75l-1.75 1.25-0.5-9.25-0.5-9.25-1-0.25q-1-0.25-1.5-10l-0.5-9.75h1 1l-1.75-6.5q-1.75-6.5-4-6.5h-2.25l-1.75-2.5-1.75-2.5-0.25-2-0.25-2 7-0.5q7-0.5 7-1.5v-1l6 0.75q6 0.75 12.5-2l6.5-2.75v0.5z"/>
  <g fill="#bfbfbf">
   <path id="path17" d="m170 160h-1l-4.5-2.5-4.5-2.5 1.25-2 1.25-2 0.25-2 0.25-2h2.25q2.25 0 4 6.5l1.75 6.5h-1z"/>
   <path id="path19" d="m195.5 139h0.5l1.5 1.25q1.5 1.25 2.5 1t1.5 8.75l0.5 9-1.5-0.75q-1.5-0.75-5.5-1l-4-0.25-1.5 0.5-1.5 0.5v0.5 0.5l-0.5-3.5-0.5-3.5 2.5-1q2.5-1 4-6.5t2-5.5z"/>
  </g>
  <path id="path21" fill="#dedede" d="m156 140l3-3v0.5 0.5l1 2.75 1 2.75 1 1.75 1 1.75-0.25 2-0.25 2-1.25 2-1.25 2 4.5 2.5 4.5 2.5 0.5 9.75q0.5 9.75 1.5 10l1 0.25 0.5 9.25 0.5 9.25 1.75-1.25q1.75-1.25 3.75-11.75t4.75-18 3.75-8l1-0.5v-0.5-0.5l1.5-0.5 1.5-0.5 0.5 1.25q0.5 1.25 4.75 3.5l4.25 2.25-0.25 6-0.25 6 2 0.5q2 0.5 3.75 21.5t3.25 38.5l1.5 17.5-2.25 1-2.25 1-6.5-1-6.5-1-0.25 1.5q-0.25 1.5-12 1.75t-14.75-2.75l-3-3-7.5-0.75-7.5-0.75-0.75-3q-0.75-3-2.5-9.5t-2.75-6.75l-1-0.25-1-0.25-1-0.25-0.5-3.5-0.5-3.5 1.75-14.5 1.75-14.5 0.5-1q0.5-1 5.5-15.5t5.25-24.5l0.25-10 3-3z"/>
  <g fill="#85815e">
   <path id="path23" d="m152.25 144.5l0.75-1.5-0.25 10q-0.25 10-5.25 24.5t-5.5 15.5l-0.5 1-1.75 14.5-1.75 14.5-0.75-2-0.75-2-1.75 6.5-1.75 6.5h-0.5q-0.5 0-2.75-13t-2.25-27.5 0.75-23l0.75-8.5 1.25-1.5q1.25-1.5 1.75-2.5l0.5-1 3.25-1.25q3.25-1.25 9.5-4.5t7-4.75z"/>
   <path id="path25" d="m204.5 126.25l1.5-0.25 3.25 2q3.25 2 7 6.25t10.25 6l6.5 1.75v0.5 0.5l-4 0.5-4 0.5-0.5 4.75q-0.5 4.75 0.25 5.5t0.75 9.75-1.75 11.25-3.75 3l-2 0.75v1q0 1 4.5 2.75t5 3 2.5 1.25h2l-0.25 2.5q-0.25 2.5-1.25 9.5t-1 8.5v1.5l-2 4.5q-2 4.5-3.5 20t-1.25 20 3.25 6.25l3 1.75-5-0.75-5-0.75-6.5-1.5-6.5-1.5v-0.5-0.5l2.25-1 2.25-1-1.5-17.5q-1.5-17.5-3.25-38.5t-3.75-21.5l-2-0.5 0.25-6 0.25-6-4.25-2.25q-4.25-2.25-4.75-3.5l-0.5-1.25 4 0.25q4 0.25 5.5 1l1.5 0.75-0.5-9q-0.5-9-1.5-8.75t-2.5-1l-1.5-1.25 0.25-1 0.25-1 0.75-2.5 0.75-2.5h1q1 0 2.5-2.75t3-3z"/>
  </g>
  <g fill="#575438">
   <path id="path27" d="m121 286.5l1-1.5 2.75 1.5q2.75 1.5 6.5 6.5l3.75 5 0.5 3.75q0.5 3.75-0.5 4t-2 3.5l-1 3.25 0.25 1.75q0.25 1.75 0.75 5.75t0.75 15 2.5 11.5 3.5 2.25l1.25 1.75-1.75 1.75q-1.75 1.75-3.75 4.75t-2.75 6l-0.75 3-1.5 0.25q-1.5 0.25-2.25 3t-1.75 4.75l-1 2-1.5-8.5q-1.5-8.5-1.75-8.75l-0.25-0.25-1.25 1.75q-1.25 1.75-4.25 8.75t-5 9-3.75 3l-1.75 1-0.25-2.5q-0.25-2.5 0.25-18t0.5-16 3.5-25 3.25-27.5l-0.25-3v-1-1h3.5q3.5 0 4.5-1.5z"/>
   <path id="path29" d="m137.25 221l0.75 2 0.5 3.5 0.5 3.5h-0.5q-0.5 0-2.25 10.5t-3.5 13l-1.75 2.5-0.5-1-0.5-1 1.5-11 1.5-11 1.75-6.5 1.75-6.5 0.75 2z"/>
   <path id="path31" d="m233 142.5v-0.5l7 2.75q7 2.75 9.5 2.5l2.5-0.25-2.25 5q-2.25 5-4.25 8t-4.25 8.25-2.5 6.5 0.25 3.75l0.5 2.5 1.75 2.25q1.75 2.25 2.75 2.5t2.5 5.25 2.75 6 3 3.75 3 4 3 2.25l1.75 1-0.5 2-0.5 2-0.25 1q-0.25 1-1.75 10.5t-2 10-0.25 14.25 0.75 14l0.5 0.25-0.75 2.5-0.75 2.5-6.75 1.75q-6.75 1.75-14.25 4l-7.5 2.25v-1-1l-1.25-3q-1.25-3-3.5-6.5l-2.25-3.5 5 0.75 5 0.75-3-1.75q-3-1.75-3.25-6.25t1.25-20 3.5-20l2-4.5v-1.5q0-1.5 1-8.5t1.25-9.5l0.25-2.5h-2q-2 0-2.5-1.25t-5-3-4.5-2.75v-1l2-0.75q2-0.75 3.75-3t1.75-11.25-0.75-9.75-0.25-5.5l0.5-4.75 4-0.5 4-0.5v-0.5z"/>
   <path id="path33" d="m256.5 289h0.5l1.25 10q1.25 10 2.75 31t2.75 43.5 0.25 24l-1 1.5-2-1q-2-1-4.25-5.5t-4-4.75-5.25 2.25l-3.5 2.5-2.5-2.5q-2.5-2.5-4.75-3.75t-2.5-1.75l-0.25-0.5-2-0.5-2-0.5 0.25-3q0.25-3-0.25-5.5t1.5-33.5 1.75-36.5l-0.25-5.5 0.75-2 0.75-2 6.25-4.25q6.25-4.25 8-6t3.5-4.25l1.75-2.5h1q1 0 1 5.5v5.5h0.5z"/>
  </g>
  <g fill="#575437">
   <path id="path35" d="m126.75 162.5l2.25-2.5-0.75 8.5q-0.75 8.5-0.75 23t2.25 27.5 2.75 13h0.5l-1.5 11-1.5 11h-2-2l-1.25-1.5q-1.25-1.5-3.25-3.5t-4.75-4.25l-2.75-2.25-5.5-0.75-5.5-0.75-2 0.25-2 0.25-1.5 2.25-1.5 2.25-1.5 2q-1.5 2-5 3l-3.5 1 0.75-13q0.75-13 1.75-17t3.5-7.5 11-12l8.5-8.5 6.5-14.5q6.5-14.5 8.75-17z"/>
   <path id="path37" d="m249.75 152l2.25-5 7.25 4.5q7.25 4.5 12 11.25t9 10.5 6.5 8.75l2.25 5 6.25 3q6.25 3 11 9.25t6 9.5 3.25 5.75 4.25 5.5l2.25 3-1.75 0.5q-1.75 0.5-3.5 2.75t-4.5 5l-2.75 2.75-3.5 18q-3.5 18-5.25 20.5l-1.75 2.5-0.25-2.5q-0.25-2.5-0.75-3l-0.5-0.5-1.5-7.5q-1.5-7.5-3-12.5l-1.5-5-3.75-2.75q-3.75-2.75-7.75-4.25t-6.75 1.25-4 5.75l-1.25 3h0.5 0.5l-1.5 0.25-1.5 0.25-1.5-1.25-1.5-1.25 0.25-0.5q0.25-0.5 1.75-11.5l1.5-11-2-4q-2-4-3.75-5l-1.75-1 0.5-2 0.5-2-1.75-1q-1.75-1-3-2.25t-3-4-3-3.75-2.75-6-2.5-5.25-2.75-2.5l-1.75-2.25-0.5-2.5q-0.5-2.5-0.25-3.75t2.5-6.5 4.25-8.25 4.25-8z"/>
  </g>
  <path id="path39" d="m94.5 248l1.5-2v7.25q0 7.25-4 7.5l-4 0.25-3-1.25-3-1.25 2-3.25 2-3.25 3.5-1q3.5-1 5-3z"/>
  <path id="path41" d="m104.5 242.75l-1.5-1.75 5.5 0.75 5.5 0.75 2.75 2.25q2.75 2.25 4.75 4.25t3.25 3.5l1.25 1.5v1 1h-1q-1 0-1.5 3l-0.5 3-1.75-1.5q-1.75-1.5-6-4.75t-4-5.5-2.5-4-4.25-3.5z"/>
  <path id="path43" d="m298.75 272.5l0.25 2.5-2-1.25q-2-1.25-3.5-1l-1.5 0.25-1.75-12.5q-1.75-12.5-2.5-13.75l-0.75-1.25-9 0.75-9 0.75h-0.5-0.5l1.25-3q1.25-3 4-5.75t6.75-1.25 7.75 4.25l3.75 2.75 1.5 5q1.5 5 3 12.5l1.5 7.5 0.5 0.5q0.5 0.5 0.75 3z"/>
  <g fill="#fff799">
   <path id="path45" d="m101 241.25l2-0.25 1.5 1.75q1.5 1.75 4.25 3.5t2.5 4 4 5.5 6 4.75l1.75 1.5 1 8 1 8h-5.5-5.5l1.5 3q1.5 3 4 3.5l2.5 0.5-1 1.5q-1 1.5-4.5 1.5h-3.5v1 1l-3.5-0.75q-3.5-0.75-10.25-5.5l-6.75-4.75-0.25-7q-0.25-7-2.25-9l-2-2 4-0.25q4-0.25 4-7.5v-7.25l1.5-2.25 1.5-2.25 2-0.25z"/>
   <path id="path47" d="m261 254l2-9 1.5 1.25 1.5 1.25 1.5-0.25 1.5-0.25 9-0.75 9-0.75 0.75 1.25q0.75 1.25 2.5 13.75l1.75 12.5-0.75 1.5-0.75 1.5-0.5 0.5q-0.5 0.5-7.25 4.25l-6.75 3.75-2.5-0.5q-2.5-0.5-3.25-2.25t-4.5-3.75l-3.75-2 1.25-2.5q1.25-2.5 3-5t2.5-3.5l0.75-1-5.25 1.5q-5.25 1.5-5.25-0.5v-2l2-9z"/>
  </g>
  <path id="path53" fill="#4a4a4a" d="m138.5 230h0.5l1 0.25 1 0.25 1 0.25q1 0.25 2.75 6.75t2.5 9.5l0.75 3 7.5 0.75 7.5 0.75 3 3q3 3 14.75 2.75t12-1.75l0.25-1.5 6.5 1 6.5 1v0.5 0.5l6.5 1.5 6.5 1.5 2.25 3.5q2.25 3.5 3.5 6.5l1.25 3v1 1l-1 0.5-1 0.5 2 9.5q2 9.5 3 9.5t1.75 2.5l0.75 2.5 0.75-0.5 0.75-0.5 0.25 5.5q0.25 5.5-1.75 36.5t-1.5 33.5 0.25 5.5l-0.25 3 2 0.5 2 0.5-2.25 1.5q-2.25 1.5-1.25 20.5t0.25 21.75l-0.75 2.75 1.75 3.75q1.75 3.75 3.25 10.25t3.5 22.5 2.5 19 2 10 2.75 12.75 1 6l-0.25 0.25-2.5-0.5q-2.5-0.5-3.25 1.5l-0.75 2-1.5-2.75q-1.5-2.75-3.75-4t-4.5-2.5-2.75-2-4.5 0l-4 0.75-2.5 3.5q-2.5 3.5-4 5.75l-1.5 2.25h0.5 0.5v1 1l-0.5 0.75q-0.5 0.75-2 1.75l-1.5 1-0.25-0.25q-0.25-0.25-2.75-4.25t-4.5-14.5-4-32-4.5-35-3-28.5-2-21-3-9l-1.5-3-1 7q-1 7-3.5 52t-3 46.5-0.25 14.5l0.25 13h-0.5-0.5l-1 4-1 4h-2-2l-1-1-1-1v-1.25q0-1.25-2.25-3.5t-6-6.5-5.75-7.5-3.25-2.75-4 0.5h-2.75l-2 4.5-2 4.5h-0.5-0.5l-1-0.75q-1-0.75-2.5-7.5l-1.5-6.75 0.75-7.5q0.75-7.5 2.25-35t0.5-29.5-1.75-26.5-1.25-24.5h-0.5l0.75-3q0.75-3 2.75-6t3.75-4.75l1.75-1.75-1.25-1.75q-1.25-1.75-3.5-2.25t-2.5-11.5-0.75-15-0.75-5.75l-0.25-1.75 1-3.25q1-3.25 2-3.5t0.5-4l-0.5-3.75h1.5 1.5l0.25-1q0.25-1 1.75-11l1.5-10h-6.25q-6.25 0-8.25 1.5l-2 1.5v-0.5-0.5l-1-8-1-8 0.5-3 0.5-3 1-1 1-1h2 2l0.5 1 0.5 1 1.75-2.5q1.75-2.5 3.5-13t2.25-10.5z"/>
  <g fill="#8c8c8c">
   <path id="path55" d="m166 514.75v1.25l-6 0.25q-6 0.25-15.5-2l-9.5-2.25 1.5-0.75 1.5-0.75 1.25-2.75q1.25-2.75 0-3.25l-1.25-0.5 2-4.5 2-4.5h2.75q2.75 0 4-0.5t3.25 2.75 5.75 7.5 6 6.5 2.25 3.5z"/>
   <path id="path57" d="m238.5 515.25l1.5 2.75 0.5 3.5 0.5 3.5h-1-1l-9-3.75q-9-3.75-10.75-4.5t-4.5-0.25l-2.75 0.5v1 1h-0.5-0.5l1.5-2.25q1.5-2.25 4-5.75l2.5-3.5 4-0.75q4-0.75 4.5 0t2.75 2 4.5 2.5 3.75 4z"/>
  </g>
  <g fill="#1a1a1a">
   <path id="path59" d="m132.75 513l1.25-1h0.5 0.5l9.5 2.25q9.5 2.25 15.5 2l6-0.25 1 1 1 1h-0.5-0.5l0.5 2q0.5 2 3 2.25l2.5 0.25-0.5 0.75-0.5 0.75h-2q-2 0-1.25 4t0.5 10l-0.25 6-4.5-0.25q-4.5-0.25-14-1.75t-19.5 0.5-21.5 1.5-15.75-2.75l-4.25-2.25-1.25-3.5q-1.25-3.5 1.25-3.75t2-1.75-2-2.25l-1.5-0.75 1-2.5 1-2.5 1-0.25q1-0.25 4 0.5l3 0.75 12 0.25 12 0.25 2.5-1.5q2.5-1.5 4.75-4.75t3.5-4.25z"/>
   <path id="path61" d="m230 521.25l9 3.75 1 0.75 1 0.75 0.25 0.25q0.25 0.25 1.5 1.75t3 4.5 1 4.25l-0.75 1.25 2.25 0.75q2.25 0.75 5.5 2.75t7.5 7l4.25 5-1.75 6-1.75 6-10.5 0.25q-10.5 0.25-13.5-1.25t-7.25-3.75-6.25-4.25-5.25-3.75-11.75-4.25l-8.5-2.5 1.5-2.25q1.5-2.25 4.5-3.5t6-2.5l3-1.25-0.25-7.5q-0.25-7.5-1-8l-0.75-0.5v-1-1-1-1l2.75-0.5q2.75-0.5 4.5 0.25t10.75 4.5z"/>
  </g>
 </g>
</svg>
