<?xml version="1.0" encoding="UTF-8" standalone="no"?>
<svg width="221px" height="40px" viewBox="0 0 221 40" version="1.1" xmlns="http://www.w3.org/2000/svg" xmlns:xlink="http://www.w3.org/1999/xlink">
    <!-- Generator: sketchtool 39.1 (31720) - http://www.bohemiancoding.com/sketch -->
    <title>E284EB59-F39C-4AF7-8331-61F01E72C9B4</title>
    <desc>Created with sketchtool.</desc>
    <defs></defs>
    <g id="Symbols" stroke="none" stroke-width="1" fill="none" fill-rule="evenodd">
        <g id="Nav-bar" transform="translate(-85.000000, -23.000000)" fill="#FFFFFF">
            <g id="Logo-Negative">
                <g transform="translate(85.000000, 23.000000)">
                    <g id="Logo">
                        <path d="M165.9127,12.4966 L160.7557,12.4966 L160.7557,11.2266 L160.7657,11.2266 C160.7657,10.2166 161.5837,9.3986 162.5937,9.3986 C162.8677,9.3986 163.1257,9.4636 163.3587,9.5716 L164.9137,6.0836 C164.2047,5.7636 163.4207,5.5806 162.5937,5.5806 C159.4757,5.5806 156.9477,8.1086 156.9477,11.2266 L156.9527,11.2266 L156.9527,12.4966 L156.9477,12.4966 L156.9527,15.6116 L156.9527,27.0226 L160.7557,27.0226 L160.7557,15.6116 L164.2917,15.6116 L165.9127,12.4966 Z" id="Fill-1"></path>
                        <path d="M174.0659,23.8998 C171.7849,23.8998 169.9359,22.0508 169.9359,19.7698 C169.9359,17.4888 171.7849,15.6398 174.0659,15.6398 C176.3469,15.6398 178.1959,17.4888 178.1959,19.7698 C178.1959,22.0508 176.3469,23.8998 174.0659,23.8998 L174.0659,23.8998 Z M178.1959,13.3318 C177.0039,12.5658 175.5889,12.1158 174.0659,12.1158 C169.8389,12.1158 166.4119,15.5428 166.4119,19.7698 C166.4119,23.9968 169.8389,27.4238 174.0659,27.4238 C175.5889,27.4238 177.0039,26.9738 178.1959,26.2068 L178.1959,27.0468 L181.9999,27.0468 L181.9999,12.4928 L178.1959,12.4928 L178.1959,13.3318 Z" id="Fill-3"></path>
                        <path d="M78.7847,12.1156 C76.6367,12.1156 74.7687,13.3096 73.8057,15.0696 C73.8047,15.0706 73.8037,15.0726 73.8027,15.0736 C72.8407,13.3116 70.9727,12.1156 68.8227,12.1156 C67.1057,12.1156 65.5757,12.8866 64.5347,14.0926 L64.5347,14.0836 L64.5347,12.4926 L60.7317,12.4926 L60.7317,27.0466 L64.5347,27.0466 L64.5347,21.4946 L64.5347,18.7326 L64.5347,17.7386 C64.5347,17.7396 64.5357,17.7416 64.5357,17.7426 L64.5377,17.7426 L64.5377,17.7896 L64.5377,18.6286 C64.5937,16.9756 65.9467,15.6526 67.6127,15.6526 C69.3147,15.6526 70.6937,17.0316 70.6937,18.7326 L70.6937,18.7326 L70.6937,18.7336 L70.6937,23.1406 L70.6937,27.0466 L70.6957,27.0466 L74.4967,27.0466 L74.4997,27.0466 L74.4997,21.5006 L74.4997,18.8376 L74.4997,18.6286 C74.5547,16.9756 75.9087,15.6526 77.5747,15.6526 C79.2757,15.6526 80.6547,17.0316 80.6547,18.7326 L80.6547,18.7326 L80.6547,18.7336 L80.6547,23.1406 L80.6547,27.0466 L84.4587,27.0466 L84.4587,17.7896 C84.4587,17.7736 84.4557,17.7586 84.4557,17.7426 C84.4307,14.6306 81.9027,12.1156 78.7847,12.1156" id="Fill-5"></path>
                        <path d="M220.9026,17.7428 C220.8776,14.6308 218.3486,12.1158 215.2316,12.1158 C213.0836,12.1158 211.2156,13.3098 210.2516,15.0698 C210.2506,15.0708 210.2506,15.0728 210.2496,15.0738 C209.2876,13.3118 207.4186,12.1158 205.2696,12.1158 C203.5516,12.1158 202.0216,12.8868 200.9816,14.0928 L200.9816,14.0838 L200.9816,12.4928 L197.1786,12.4928 L197.1786,27.0468 L200.9816,27.0468 L200.9816,21.4948 L200.9816,18.7328 L200.9816,17.7388 L200.9816,17.7428 L200.9846,17.7418 L200.9846,17.7898 L200.9846,18.6278 C201.0396,16.9758 202.3936,15.6528 204.0596,15.6528 C205.7606,15.6528 207.1396,17.0318 207.1396,18.7328 L207.1396,18.7328 L207.1396,18.7338 L207.1396,23.1408 L207.1396,27.0468 L207.1426,27.0468 L210.9436,27.0468 L210.9456,27.0468 L210.9456,21.5008 L210.9456,18.8378 L210.9456,18.6278 C211.0016,16.9758 212.3556,15.6528 214.0216,15.6528 C215.7226,15.6528 217.1016,17.0318 217.1016,18.7328 L217.1016,18.7328 L217.1016,18.7338 L217.1016,23.1408 L217.1016,27.0468 L220.9046,27.0468 L220.9046,17.7898 C220.9046,17.7738 220.9026,17.7588 220.9026,17.7428" id="Fill-7"></path>
                        <path d="M119.2057,17.523 C119.1997,17.387 119.1927,17.252 119.1777,17.119 C119.1647,17.014 119.1457,16.912 119.1277,16.809 C119.1097,16.704 119.0897,16.599 119.0657,16.496 C119.0417,16.39 119.0137,16.286 118.9827,16.182 C118.9547,16.086 118.9227,15.991 118.8897,15.897 C118.8527,15.795 118.8177,15.693 118.7757,15.593 C118.7357,15.497 118.6887,15.405 118.6437,15.312 C118.6047,15.231 118.5717,15.147 118.5297,15.069 C118.5287,15.071 118.5277,15.072 118.5277,15.074 C117.5647,13.312 115.6967,12.116 113.5467,12.116 C111.8297,12.116 110.2997,12.887 109.2597,14.093 L109.2597,14.084 L109.2597,12.493 L105.4557,12.493 L105.4557,27.046 L109.2597,27.046 L109.2597,21.495 L109.2597,18.733 L109.2597,17.738 L109.2597,17.743 L109.2617,17.742 L109.2617,17.789 L109.2617,18.628 C109.3177,16.976 110.6707,15.653 112.3367,15.653 C114.0387,15.653 115.4177,17.032 115.4177,18.733 L115.4177,18.733 L115.4177,18.734 L115.4177,23.141 L115.4177,27.046 L115.4197,27.046 L119.2207,27.046 L119.2237,27.046 L119.2237,21.5 L119.2237,18.838 L119.2237,18.628 L119.2237,17.789 L119.2237,17.742 L119.2207,17.743 C119.2207,17.668 119.2087,17.597 119.2057,17.523" id="Fill-9"></path>
                        <path d="M94.957,23.8998 C92.676,23.8998 90.827,22.0508 90.827,19.7698 C90.827,17.4888 92.676,15.6398 94.957,15.6398 C97.238,15.6398 99.087,17.4888 99.087,19.7698 C99.087,22.0508 97.238,23.8998 94.957,23.8998 M94.957,12.1158 C90.73,12.1158 87.303,15.5428 87.303,19.7698 C87.303,23.9968 90.73,27.4238 94.957,27.4238 C99.184,27.4238 102.611,23.9968 102.611,19.7698 C102.611,15.5428 99.184,12.1158 94.957,12.1158" id="Fill-11"></path>
                        <path d="M125.8034,18.4944 C126.3414,16.8384 127.8954,15.6394 129.7304,15.6394 C131.5664,15.6394 133.1204,16.8384 133.6584,18.4944 L125.8034,18.4944 Z M129.7304,12.1154 C125.5034,12.1154 122.0764,15.5424 122.0764,19.7694 C122.0764,23.9964 125.5034,27.4234 129.7304,27.4234 C132.8774,27.4234 135.5774,25.5234 136.7534,22.8104 L133.1144,22.1334 C132.3674,23.2004 131.1314,23.8994 129.7304,23.8994 C127.8954,23.8994 126.3414,22.7014 125.8034,21.0444 L133.6584,21.0444 L137.2704,21.0444 C137.3394,20.6294 137.3844,20.2054 137.3844,19.7694 C137.3844,19.3344 137.3394,18.9104 137.2704,18.4944 C136.6614,14.8754 133.5224,12.1154 129.7304,12.1154 L129.7304,12.1154 Z" id="Fill-13"></path>
                        <polygon id="Fill-15" points="146.3478 21.9353 142.1398 12.4933 138.0758 12.4933 144.3158 26.4943 142.0018 31.6863 146.0658 31.6863 146.3478 31.0533 148.3798 26.4943 154.6198 12.4933 150.5558 12.4933"></polygon>
                        <path d="M192.4662,12.5207 C190.9042,12.5207 189.3632,13.4697 188.6922,14.8207 L188.6922,12.4927 L187.7062,12.4927 L184.8892,12.4927 L184.8892,27.0467 L188.6922,27.0467 L188.6922,19.8907 C188.7962,17.8937 190.4432,16.3047 192.4662,16.3047 L194.9232,16.3047 L194.9232,12.5207 L192.4662,12.5207 Z" id="Fill-17"></path>
                        <path d="M45.0063,6.3786 C44.0133,6.3786 43.2063,7.1856 43.2063,8.1796 C43.2063,8.3986 43.2513,8.6066 43.3233,8.8006 L37.6043,14.3076 L37.1443,14.7506 L29.4923,22.1196 C29.2803,22.0316 29.0473,21.9816 28.8033,21.9816 C28.4933,21.9816 28.2053,22.0686 27.9513,22.2056 L19.7423,15.8216 C19.7773,15.6796 19.8023,15.5336 19.8023,15.3796 C19.8023,14.3866 18.9963,13.5796 18.0013,13.5796 C17.0093,13.5796 16.2023,14.3866 16.2023,15.3796 C16.2023,15.5996 16.2473,15.8066 16.3193,16.0016 L2.4883,29.3206 C2.2763,29.2316 2.0433,29.1826 1.7993,29.1826 C0.8063,29.1826 0.0003,29.9896 0.0003,30.9826 C0.0003,31.9766 0.8063,32.7836 1.7993,32.7836 C2.7943,32.7836 3.6003,31.9766 3.6003,30.9826 C3.6003,30.7636 3.5553,30.5556 3.4833,30.3616 L5.8053,28.1256 L9.6623,24.4116 L9.6623,24.4116 L17.3143,17.0436 C17.5263,17.1316 17.7583,17.1806 18.0013,17.1806 C18.3123,17.1806 18.6003,17.0956 18.8553,16.9566 L27.0643,23.3406 C27.0283,23.4826 27.0033,23.6286 27.0033,23.7806 C27.0033,24.7766 27.8103,25.5816 28.8033,25.5816 C29.7983,25.5816 30.6033,24.7766 30.6033,23.7806 C30.6033,23.5626 30.5593,23.3556 30.4873,23.1616 L44.3183,9.8426 C44.5303,9.9306 44.7623,9.9796 45.0063,9.9796 C46.0023,9.9796 46.8073,9.1746 46.8073,8.1796 C46.8073,7.1856 46.0023,6.3786 45.0063,6.3786" id="Fill-19"></path>
                        <path d="M37.9428,18.7587 C37.9578,19.0327 37.9848,19.3037 37.9848,19.5807 C37.9848,27.6207 31.4438,34.1617 23.4038,34.1617 C17.8148,34.1617 12.9578,30.9987 10.5108,26.3717 L6.8078,29.9377 C10.2678,35.4697 16.3968,39.1617 23.4038,39.1617 C34.2178,39.1617 42.9848,30.3957 42.9848,19.5807 C42.9848,17.8397 42.7348,16.1607 42.3088,14.5547 L37.9428,18.7587 Z" id="Fill-21"></path>
                        <path d="M8.8642,20.4044 C8.8492,20.1304 8.8222,19.8594 8.8222,19.5814 C8.8222,11.5414 15.3632,5.0004 23.4032,5.0004 C28.9922,5.0004 33.8492,8.1634 36.2962,12.7904 L40.0002,9.2244 C36.5402,3.6924 30.4102,0.0004 23.4032,0.0004 C12.5892,0.0004 3.8222,8.7664 3.8222,19.5814 C3.8222,21.3224 4.0722,23.0014 4.4982,24.6084 L8.8642,20.4044 Z" id="Fill-23"></path>
                    </g>
                </g>
            </g>
        </g>
    </g>
</svg>