<svg xmlns="http://www.w3.org/2000/svg" viewBox="0 0 564.5 144.6">
  <path d="M429.4 21.7c-25.1 0-42.5 18-42.5 43.8 0 23.8 17.2 43.2 45 43.2 20.8 0 33.6-12.6 33.6-12.6l-8.7-14.4s-10 9.3-23.4 9.3c-12.6 0-23.5-7.1-25.1-21.9H466s.5-5.2.5-7.7c-.1-22.2-13.2-39.7-37.1-39.7zm-20.5 32.9c2.3-10.5 9.8-16.9 20.5-16.9 8.5 0 15.4 6.9 15.7 16.9h-36.2zm136.3-31c-6.6 0-9.2 3.9-9.2 7.7v2.1h-.3s-6.4-11.8-25.7-11.8c-24.1 0-37.1 18.7-37.1 41.7 0 23 13.6 42.3 37.6 42.3 11.2 0 18.4-3.8 23.3-10.8h.3s-.2 2.5-.2 4.4v3.9c0 15.1-11 20.5-23.6 20.5-12.8 0-23.1-5.6-23.1-5.6l-6.4 16.4c8 4.3 19.2 7.2 29.7 7.2 21.8 0 44.1-10.8 44.1-39.5V44.6c0-2.1 1.5-3.3 3.6-3.3h6.4V23.6h-19.4zm-30.4 64.5c-13.5 0-20.8-10.8-20.8-25.4 0-14.1 6.9-23.3 19.5-23.3 11.3 0 20.8 5.1 20.8 24.1 0 18.8-9.5 24.6-19.5 24.6zM57 21.7c-11.8 0-21.3 5-26.8 14.3v-3.8c0-5.9-3.8-9.3-11-9.3H0v17.6h6.6c2.3 0 3.6 1.3 3.6 3.6v62.5h20.9V61c0-13.6 6.8-21.7 19.9-21.7 11.8 0 16.4 7 16.4 19v48.3h20.9v-50c0-22.8-13-34.9-31.3-34.9zm319.9 63.6V56.2c0-21.4-11.7-34.5-31.1-34.5-12 0-21.7 4.3-28.1 14.3-4.3-10.2-12.2-14.3-24.2-14.3-10.5 0-18.9 3.9-24.4 14.3 0-.9.1-.5.1-1.4v-2.5c0-5.9-3.6-9.3-11-9.3h-43V0h-20.4v22.8h-11.3v16.7h10.8v36.6c0 28 23.1 31.5 34.8 31.5 3.8 0 6.4-.5 6.4-.5V88.9s-1.5.3-3.8.3c-5.7 0-16.6-2-16.6-15.8V39.5h30.4c2.3 0 3.6 1.3 3.6 3.6v63.3H270v-46c0-14 5.7-21.2 17.5-21.2 11.4 0 15.1 6.4 15.1 18v49.3h20.9V60.4c0-14 5.7-21.2 17.5-21.2 11.4 0 15.1 6.4 15.1 18v38.1c0 7.9 3.3 11.2 11.2 11.2H387V88.9h-6.4c-2.3 0-3.7-1.3-3.7-3.6zm-201.7 0V22.8h-20.9v45.5c0 13.6-6.8 21.7-19.9 21.7-11.8 0-16.4-7-16.4-19V22.8H97.2v49.9c0 22.7 12.9 34.9 31.3 34.9 11.8 0 21.3-5 26.8-14.3v3.8c0 5.9 3.8 9.3 11 9.3h19.2V88.9h-6.6c-2.3 0-3.7-1.3-3.7-3.6z" fill="#2FB153"/>
</svg>